<?xml version="1.0" standalone="no"?>
<!DOCTYPE svg PUBLIC "-//W3C//DTD SVG 20010904//EN"
 "http://www.w3.org/TR/2001/REC-SVG-20010904/DTD/svg10.dtd">
<svg version="1.0" xmlns="http://www.w3.org/2000/svg"
 width="256.000000pt" height="256.000000pt" viewBox="0 0 256.000000 256.000000"
 preserveAspectRatio="xMidYMid meet">
<metadata>
Created by potrace 1.11, written by Peter Selinger 2001-2013
</metadata>
<g transform="translate(0.000000,256.000000) scale(0.100000,-0.100000)"
fill="#000000" stroke="none">
<path d="M1115 2549 c-121 -16 -256 -57 -380 -118 -363 -175 -614 -499 -701
-901 -26 -119 -26 -381 0 -500 87 -402 338 -726 701 -901 354 -172 746 -172
1100 0 363 175 614 499 701 901 26 119 26 381 0 500 -87 402 -338 726 -701
901 -226 110 -470 149 -720 118z m380 -55 c307 -53 578 -220 770 -475 104
-138 193 -330 219 -471 l7 -38 -45 0 c-130 0 -265 60 -358 159 -35 36 -75 92
-90 123 -25 51 -28 68 -28 161 0 91 -3 108 -21 131 -30 38 -64 49 -105 36 -55
-18 -64 -41 -64 -158 0 -96 -2 -109 -32 -171 -21 -44 -53 -88 -97 -132 -158
-157 -381 -192 -589 -91 -78 37 -180 140 -220 221 -29 59 -32 72 -32 163 0
122 -16 157 -78 173 -31 8 -87 -20 -101 -51 -6 -14 -11 -70 -11 -125 0 -89 -3
-107 -27 -157 -39 -81 -150 -191 -233 -229 -76 -36 -149 -53 -226 -53 l-55 0
7 38 c26 141 115 333 219 471 191 253 459 419 765 475 105 19 316 19 425 0z
m-755 -863 c0 -311 3 -420 12 -429 9 -9 144 -12 545 -12 516 0 533 1 543 19 6
13 10 166 10 429 0 339 2 411 14 415 34 13 36 -12 36 -428 0 -306 3 -414 12
-423 9 -9 90 -12 305 -12 236 0 293 -3 293 -13 0 -8 -7 -56 -16 -107 -88 -510
-492 -916 -999 -1004 -115 -20 -305 -20 -420 0 -507 88 -911 494 -999 1004 -9
51 -16 99 -16 107 0 10 58 13 303 13 222 0 306 3 315 12 9 9 12 118 12 429 0
428 1 435 38 421 9 -3 12 -97 12 -421z m-120 -56 l0 -195 -281 0 -281 0 6 31
c3 17 6 40 6 50 0 11 5 19 10 19 6 0 10 -21 10 -46 0 -59 24 -55 28 4 3 39 5
42 33 42 28 0 29 -2 29 -45 0 -60 18 -58 22 3 3 43 5 47 30 50 25 3 27 1 30
-44 4 -70 28 -70 28 0 0 44 4 57 19 66 36 19 41 12 41 -55 0 -51 3 -65 15 -65
12 0 15 15 15 74 0 67 2 75 25 90 13 9 27 16 30 16 3 0 5 -40 5 -90 0 -73 3
-90 15 -90 12 0 15 18 15 102 0 91 2 104 22 125 12 13 25 23 30 23 4 0 8 -57
8 -126 0 -96 3 -125 13 -122 8 3 13 47 17 154 5 134 7 153 28 187 13 20 26 37
28 37 2 0 4 -88 4 -195z m228 146 l32 -49 0 -141 c0 -119 2 -141 15 -141 13 0
15 21 15 127 l0 127 30 -29 c29 -28 30 -31 30 -127 0 -80 3 -98 15 -98 12 0
15 17 15 90 l0 89 30 -17 c29 -16 30 -19 30 -90 0 -55 3 -73 13 -70 7 3 13 28
15 66 2 34 5 62 7 62 2 0 15 -4 29 -10 24 -9 26 -15 26 -65 0 -30 5 -55 10
-55 6 0 10 23 10 51 l0 50 33 -3 c31 -3 32 -5 35 -50 4 -61 22 -63 22 -3 0 45
0 45 35 45 35 0 35 0 35 -46 0 -62 24 -54 28 9 3 42 6 47 27 47 21 0 24 -5 27
-47 5 -70 28 -69 28 1 0 51 2 57 26 66 14 6 27 10 30 10 2 0 4 -29 4 -65 0
-51 3 -65 15 -65 12 0 15 15 15 73 0 70 1 73 30 89 l30 17 0 -89 c0 -73 3 -90
15 -90 12 0 15 18 15 98 0 96 1 99 30 127 l30 29 0 -128 c0 -98 3 -127 13
-124 8 3 13 46 17 149 5 138 6 146 33 184 16 22 30 41 33 44 2 2 4 -84 4 -192
l0 -197 -485 0 -485 0 0 195 c0 107 1 195 3 195 2 0 18 -22 35 -49z m1182
-175 c4 -107 9 -151 18 -154 9 -3 12 27 12 129 l0 133 30 -29 c30 -28 30 -30
30 -132 0 -85 3 -103 15 -103 12 0 15 17 15 90 0 50 2 90 5 90 3 0 17 -7 30
-16 23 -15 25 -23 25 -90 0 -59 3 -74 15 -74 12 0 15 14 15 65 0 67 5 74 41
55 15 -9 19 -22 19 -66 0 -70 23 -70 28 -1 3 45 5 47 33 47 28 0 29 -1 29 -50
0 -27 5 -50 10 -50 6 0 10 20 10 45 0 45 0 45 35 45 35 0 35 0 35 -45 0 -44
14 -61 23 -27 4 13 5 11 6 -5 l1 -23 -270 0 -270 0 0 197 0 198 28 -40 c26
-38 27 -47 32 -189z m-1410 -261 l0 -25 -280 0 -280 0 0 25 0 25 280 0 280 0
0 -25z m1160 0 l0 -25 -485 0 -485 0 0 25 0 25 485 0 485 0 0 -25z m730 0 l0
-25 -270 0 -270 0 0 25 0 25 270 0 270 0 0 -25z"/>
<path d="M890 955 c0 -42 3 -55 15 -55 8 0 15 9 15 20 0 15 7 20 25 20 14 0
25 5 25 10 0 6 -11 10 -25 10 -14 0 -25 5 -25 10 0 6 14 10 30 10 20 0 30 5
30 15 0 11 -12 15 -45 15 l-45 0 0 -55z"/>
<path d="M990 956 c0 -49 2 -56 20 -56 12 0 20 7 20 17 0 15 1 15 18 0 20 -19
42 -22 42 -8 0 6 -5 13 -10 16 -8 5 -7 11 0 20 6 8 10 24 8 37 -3 20 -10 23
-50 26 l-48 3 0 -55z m70 14 c0 -5 -7 -10 -15 -10 -8 0 -15 5 -15 10 0 6 7 10
15 10 8 0 15 -4 15 -10z"/>
<path d="M1126 994 c-20 -20 -20 -58 0 -78 34 -35 104 -8 104 41 0 45 -71 71
-104 37z m71 -30 c3 -8 -2 -23 -11 -32 -15 -15 -17 -15 -32 0 -21 21 -11 48
16 48 11 0 23 -7 27 -16z"/>
<path d="M1250 955 c0 -42 3 -55 15 -55 10 0 15 10 15 28 l1 27 22 -27 c13
-16 30 -28 40 -28 14 0 17 10 17 55 0 48 -2 55 -20 55 -15 0 -20 -7 -20 -26
l0 -27 -21 27 c-34 43 -49 34 -49 -29z"/>
<path d="M1370 995 c0 -8 7 -15 15 -15 11 0 15 -11 15 -40 0 -29 4 -40 15 -40
11 0 15 11 15 40 0 33 3 40 20 40 11 0 20 7 20 15 0 11 -12 15 -50 15 -38 0
-50 -4 -50 -15z"/>
<path d="M1546 998 c-3 -7 -9 -28 -15 -47 -14 -44 -14 -51 4 -51 8 0 19 17 25
41 6 22 14 47 17 55 3 9 -1 14 -11 14 -9 0 -18 -6 -20 -12z"/>
<path d="M1586 958 c-8 -29 -13 -54 -11 -56 10 -11 35 9 35 28 0 28 14 25 28
-5 10 -23 42 -36 42 -17 0 4 7 28 15 55 13 45 13 47 -5 47 -13 0 -20 -7 -20
-19 0 -30 -16 -33 -28 -6 -19 40 -39 30 -56 -27z"/>
<path d="M613 974 c-26 -29 -58 -31 -75 -4 -12 18 -38 28 -38 14 0 -18 23 -43
48 -52 21 -7 37 -6 62 4 25 11 36 11 47 3 32 -27 113 0 113 38 0 19 -14 16
-35 -7 -24 -27 -51 -25 -78 4 l-23 24 -21 -24z"/>
<path d="M1933 975 c-26 -30 -58 -32 -75 -5 -7 11 -18 20 -25 20 -16 0 -16 -6
-3 -30 15 -28 61 -40 98 -24 27 11 36 10 62 -2 28 -14 33 -14 63 3 19 12 33
29 35 44 l4 24 -29 -27 c-36 -34 -56 -35 -85 -3 l-23 24 -22 -24z"/>
<path d="M1020 779 c-88 -37 -101 -147 -25 -207 20 -16 42 -22 77 -22 43 0 55
5 83 33 19 19 37 46 41 61 9 36 -14 94 -47 118 -31 23 -94 32 -129 17z m85
-79 c28 -31 10 -74 -33 -78 -26 -3 -34 1 -43 22 -10 20 -9 30 5 51 20 30 46
32 71 5z"/>
<path d="M1946 782 c-7 -12 -96 -223 -96 -228 0 -2 18 -4 40 -4 27 0 43 5 46
15 4 10 20 15 49 15 29 0 45 -5 49 -15 3 -10 19 -15 46 -15 22 0 40 1 40 3 0
1 -22 54 -48 117 -48 114 -49 115 -84 118 -20 2 -39 -1 -42 -6z m53 -134 c1
-5 -6 -8 -14 -8 -16 0 -19 9 -8 36 6 16 7 16 14 -2 4 -10 8 -22 8 -26z"/>
<path d="M500 665 l0 -115 35 0 c34 0 35 1 35 40 l0 40 55 0 c54 0 55 0 55 30
0 30 -1 30 -55 30 -42 0 -55 3 -55 15 0 12 13 15 60 15 l60 0 0 30 0 30 -95 0
-95 0 0 -115z"/>
<path d="M730 665 l0 -115 95 0 95 0 0 35 0 35 -55 0 -55 0 0 80 0 80 -40 0
-40 0 0 -115z"/>
<path d="M1242 668 l3 -113 38 -3 c36 -3 37 -3 37 32 0 45 12 46 40 1 20 -32
26 -35 66 -35 48 0 48 0 11 51 -19 27 -19 27 2 48 31 31 28 84 -5 110 -22 18
-41 21 -111 21 l-84 0 3 -112z m133 27 c0 -14 -8 -21 -27 -23 -24 -3 -28 0
-28 23 0 23 4 26 28 23 19 -2 27 -9 27 -23z"/>
<path d="M1510 664 l0 -115 38 3 37 3 3 113 3 112 -41 0 -40 0 0 -116z"/>
<path d="M1640 664 l0 -115 38 3 c31 2 38 7 41 28 4 29 17 40 51 40 53 1 93
67 69 112 -21 40 -41 47 -121 48 l-78 0 0 -116z m125 31 c0 -13 -8 -21 -22
-23 -19 -3 -23 1 -23 23 0 22 4 26 23 23 14 -2 22 -10 22 -23z"/>
</g>
</svg>
