<?xml version="1.0" encoding="UTF-8"?>
<svg width="532px" height="122px" viewBox="0 0 532 122" version="1.1" xmlns="http://www.w3.org/2000/svg" xmlns:xlink="http://www.w3.org/1999/xlink">
    <!-- Generator: Sketch 55 (78076) - https://sketchapp.com -->
    <title>2019</title>
    <desc>Created with Sketch.</desc>
    <g id="Welcome" stroke="none" stroke-width="1" fill="none" fill-rule="evenodd">
        <g id="Desktop-HD" transform="translate(0.000000, -585.000000)" fill="#000000" fill-rule="nonzero">
            <path d="M126.735352,705.273438 L2.01806641,705.432617 L2.01806641,693.255371 C2.01806641,681.316895 4.56494141,671.766113 9.65869141,664.682617 C13.3994141,659.509277 19.4482422,654.972656 27.8847656,651.072754 C34.809082,648.04834 46.5087891,644.944336 62.9042969,641.681152 C79.8569336,637.94043 90.9199219,634.916016 96.1728516,632.60791 C100.072754,630.856934 102.699219,629.185547 104.052246,627.51416 C104.768555,626.638672 105.246094,625.683594 105.484863,624.648926 C105.166504,622.977539 104.529785,621.624512 103.654297,620.589844 C102.14209,618.838867 99.8339844,617.40625 96.7299805,616.371582 C89.328125,613.426758 78.5039062,611.994141 64.1777344,611.994141 C53.8310547,611.994141 44.519043,613.585938 36.3212891,616.689941 C28.8398437,619.395996 23.7460937,622.73877 20.9604492,626.638672 L20.3237305,627.43457 L0.426269531,613.108398 L1.06298828,612.15332 C6.5546875,604.433105 15.3891602,598.304688 27.5664062,593.768066 C38.7885742,589.629395 50.9658203,587.560059 64.0981445,587.560059 C81.5283203,587.560059 95.3769531,589.470215 105.644043,593.370117 C112.48877,596.076172 117.900879,599.737305 121.959961,604.353516 C126.814941,609.686035 129.441406,615.973633 129.839355,623.216309 L129.839355,624.171387 C129.839355,628.230469 129.123047,631.891602 127.77002,635.154785 C126.416992,638.497559 124.506836,641.442383 122.039551,644.068848 C118.139648,648.287109 112.807129,651.948242 106.041992,655.052246 C98.9584961,658.15625 86.2241211,661.658203 67.7592773,665.478516 C51.7617187,668.980469 41.7333984,671.606934 37.5947266,673.4375 C33.4560547,675.268066 30.75,677.098633 29.4765625,678.929199 C28.8398437,679.804688 28.4418945,680.441406 28.2827148,680.839355 L126.735352,680.839355 L126.735352,705.273438 Z M4.24658203,703.204102 L124.745605,703.283691 L124.745605,683.38623 L25.4174805,683.38623 L25.9746094,681.874023 C26.3725586,680.361816 27.0092773,679.008789 27.8847656,677.814941 C29.3969727,675.506836 32.4213867,673.35791 36.9580078,671.368164 C42.3701172,669.060059 52.5576172,666.433594 67.440918,663.40918 C84.9506836,659.827637 97.5258789,656.325684 105.246094,652.98291 C111.692871,650.197266 116.786621,646.695312 120.527344,642.556641 C122.915039,640.089355 124.666016,637.383301 125.780273,634.438477 C127.133301,631.175293 127.77002,627.83252 127.77002,624.330566 L127.77002,623.534668 C127.212891,616.689941 124.745605,610.800293 120.368164,605.945312 C116.309082,601.567871 111.135742,598.145508 104.848145,595.678223 C95.0585937,591.85791 81.4487305,589.947754 64.0185547,589.947754 C51.2841797,589.947754 39.3457031,591.9375 28.2827148,595.996582 C17.2197266,600.135254 8.94238281,605.706543 3.45068359,612.790039 L19.7666016,624.569336 C22.8706055,620.749023 28.0439453,617.48584 35.2866211,614.779785 C44.2006836,611.516602 53.7514648,609.845215 64.0185547,609.765625 C78.9018555,609.765625 90.0444336,611.277832 97.4462891,614.381836 C100.948242,615.734863 103.574707,617.32666 105.246094,619.157227 C106.599121,620.589844 107.39502,622.42041 107.713379,624.569336 L107.713379,624.728516 C107.633789,626.399902 106.91748,627.912109 105.564453,629.265137 C104.052246,631.095703 101.187012,632.92627 96.96875,634.756836 C91.4770508,637.224121 80.2548828,640.248535 63.3022461,643.830078 C46.9863281,647.172852 35.5253906,650.276855 28.8398437,653.14209 C20.8012695,656.723633 14.9912109,661.021484 11.409668,666.035645 C6.63427734,672.959961 4.24658203,682.033203 4.24658203,693.255371 L4.24658203,703.204102 Z M225.187988,706.785645 L225.108398,706.467285 C215.955566,706.467285 206.961914,705.114258 198.127441,702.408203 C189.452148,699.622559 181.891113,695.563477 175.444336,690.230957 C168.52002,684.898438 163.10791,678.37207 159.208008,670.651855 C155.387695,663.09082 153.477539,654.972656 153.557129,646.376953 C153.557129,637.462891 155.546875,629.185547 159.526367,621.465332 C163.34668,614.222656 168.679199,607.775879 175.523926,602.20459 C182.050293,597.03125 189.611328,593.051758 198.207031,590.266113 C206.484375,587.560059 215.478027,586.207031 225.108398,586.127441 C234.897949,586.127441 243.891602,587.480469 252.168945,590.266113 C260.525879,592.892578 268.007324,596.87207 274.613281,602.20459 C281.776367,608.014648 287.268066,614.620605 291.088379,622.102051 C294.829102,630.061035 296.659668,638.179199 296.659668,646.536133 C296.659668,655.370605 294.669922,663.568359 290.61084,671.129395 C287.029297,678.53125 281.776367,684.978027 274.852051,690.469727 C268.405273,695.802246 260.844238,699.861328 252.168945,702.726562 C243.175293,705.432617 234.181641,706.785645 225.187988,706.785645 Z M225.028809,588.276367 L224.869629,588.355957 C215.478027,588.355957 206.723145,589.708984 198.60498,592.415039 C190.327637,595.041504 183.005371,598.941406 176.558594,604.114746 C169.952637,609.606445 164.858887,615.734863 161.277344,622.5 C157.457031,630.061035 155.546875,638.02002 155.546875,646.376953 C155.546875,654.654297 157.377441,662.374512 160.958984,669.537598 C164.460937,676.621094 169.634277,682.908691 176.558594,688.400391 C183.084961,693.57373 190.407227,697.473633 198.60498,700.100098 C206.802734,702.806152 215.557617,704.15918 224.869629,704.15918 C234.34082,704.15918 243.095703,702.806152 251.134277,700.100098 C259.411621,697.473633 266.813477,693.57373 273.339844,688.320801 C279.866211,683.067871 284.880371,676.939453 288.461914,669.855957 C292.282227,662.454102 294.192383,654.574707 294.192383,646.217773 C294.192383,637.86084 292.361816,630.061035 288.780273,622.897949 C285.19873,615.655273 280.025391,609.288086 273.260254,603.796387 C266.654297,598.702637 259.332031,594.802734 251.293457,592.17627 C243.175293,589.549805 234.42041,588.276367 225.028809,588.276367 Z M224.869629,684.341309 L224.869629,684.261719 C217.945312,684.261719 211.418945,683.306641 205.290527,681.316895 C198.84375,679.247559 193.431641,676.461914 189.054199,672.880371 C184.597168,669.378418 181.254395,665.398926 179.105469,660.941895 C176.717773,656.564453 175.523926,651.709473 175.523926,646.297363 C175.523926,640.964844 176.717773,636.109863 179.105469,631.652832 C181.174805,627.116211 184.517578,623.057129 189.054199,619.555176 C193.75,615.814453 199.162109,613.028809 205.290527,611.118652 C211.418945,609.128906 217.945312,608.173828 224.869629,608.173828 C231.793945,608.173828 238.320312,609.128906 244.44873,611.118652 C250.736328,613.187988 256.148437,615.973633 260.605469,619.395996 L260.605469,619.555176 C264.98291,623.057129 268.325684,627.036621 270.633789,631.493652 C273.021484,635.950684 274.215332,640.885254 274.215332,646.297363 C274.215332,651.629883 273.021484,656.484863 270.633789,660.862305 C268.325684,665.558105 264.98291,669.537598 260.525879,672.800781 C256.307617,676.302734 250.895508,679.167969 244.369141,681.396484 C238.320312,683.38623 231.793945,684.341309 224.869629,684.341309 Z M190.407227,671.049805 L190.566406,670.970215 C195.023437,674.472168 200.196777,677.178223 206.086426,679.167969 C212.214844,680.998535 218.502441,681.953613 225.028809,681.953613 C231.793945,681.953613 238.081543,680.998535 243.891602,679.008789 C249.54248,677.257812 254.71582,674.551758 259.411621,670.811035 C263.311523,667.786621 266.415527,664.125488 268.723633,659.748047 C270.872559,655.370605 271.986816,650.833984 271.986816,646.138184 C271.986816,641.283203 270.872559,636.666992 268.723633,632.289551 C266.415527,628.230469 263.311523,624.489746 259.411621,621.067383 C254.63623,617.48584 249.383301,614.779785 243.732422,613.028809 C237.604004,611.198242 231.316406,610.322754 224.869629,610.402344 C218.104492,610.402344 211.816895,611.357422 205.927246,613.267578 C200.515137,614.938965 195.341797,617.64502 190.407227,621.385742 C186.348145,624.648926 183.244141,628.389648 181.095215,632.60791 C178.946289,636.985352 177.832031,641.521973 177.832031,646.297363 C177.832031,651.072754 178.946289,655.609375 181.095215,659.986816 C183.244141,664.125488 186.348145,667.786621 190.407227,671.049805 Z M369.723145,704.955078 L344.652344,704.955078 L344.652344,615.973633 L328.177246,626.399902 L316.07959,606.97998 L344.652344,589.072266 L344.652344,588.594727 L369.723145,588.594727 L369.723145,704.955078 Z M346.880859,702.726562 L367.415039,702.726562 L367.415039,590.902832 L346.084961,590.902832 L319.183594,607.855469 L328.973145,623.136719 L346.880859,611.914551 L346.880859,702.726562 Z M459.182129,706.308105 L458.86377,706.546875 C452.894531,706.546875 446.606934,705.910156 440.080566,704.716309 C432.360352,703.522461 424.401367,701.055176 416.203613,697.394043 C408.642578,693.8125 401.957031,688.95752 396.146973,682.908691 L395.430664,682.033203 L408.801758,668.34375 L409.597656,669.060059 C415.407715,674.153809 421.854492,677.814941 429.017578,680.123047 C436.737793,682.510742 444.219238,683.86377 451.461914,684.182129 C458.54541,684.500488 465.788086,684.022949 473.269531,682.749512 C480.512207,681.396484 487.118164,678.69043 493.007812,674.631348 C497.385254,671.368164 500.807617,667.468262 503.274902,662.931641 C505.344238,658.872559 506.617676,654.654297 507.015625,650.197266 C498.738281,655.211426 489.824219,658.633789 480.273437,660.464355 C469.608398,662.533691 459.420898,663.40918 449.631348,663.09082 C445.094727,663.09082 440.080566,662.772461 434.668457,662.135742 C429.893066,661.737793 424.799316,660.703125 419.307617,659.031738 C414.452637,657.360352 409.916016,655.052246 405.697754,652.027832 C401.479492,648.764648 398.295898,644.705566 396.146973,639.850586 C394.316406,636.030273 393.281738,631.732422 393.122559,626.957031 C392.883789,622.102051 393.759277,617.724609 395.669434,613.904297 C397.818359,609.049316 400.922363,604.990234 404.981445,601.727051 C408.801758,598.623047 413.099609,595.837402 417.875,593.370117 L418.03418,593.370117 C427.584961,589.151855 437.613281,586.68457 448.039551,585.968262 C459.102539,585.092773 469.449219,585.490723 479,587.162109 C484.01416,587.798828 488.869141,588.913086 493.564941,590.584473 C497.783203,591.9375 502.240234,593.927246 506.936035,596.553711 C511.074707,599.180176 514.81543,602.28418 518.158203,605.865723 C521.500977,609.606445 524.207031,613.824707 526.355957,618.600098 C527.868164,622.5 528.982422,626.320312 529.619141,629.981445 C531.449707,638.975098 531.608887,647.88916 530.09668,656.723633 C528.664062,665.637695 525.162109,673.755859 519.51123,681.157715 L519.352051,681.157715 C519.272461,681.237305 519.192871,681.396484 519.192871,681.635254 L518.476562,682.510742 L516.248047,685.057617 C515.611328,685.773926 514.81543,686.569824 513.780762,687.445312 C510.517578,690.708496 507.015625,693.334961 503.195312,695.404297 C499.056641,697.712402 495.077148,699.542969 491.256836,700.975586 C483.297852,703.76123 474.861328,705.432617 466.026855,705.989746 C463.002441,706.228516 460.694336,706.308105 459.182129,706.308105 Z M398.534668,682.033203 L398.853027,682.112793 C404.344727,687.604492 410.632324,691.981934 417.63623,695.245117 C425.197266,698.74707 432.99707,701.214355 440.956055,702.646973 C449.312988,704.15918 457.590332,704.557129 465.788086,703.84082 C474.383789,703.283691 482.581543,701.612305 490.381348,698.82666 C494.599609,697.314453 498.499512,695.563477 502.001465,693.57373 C505.901367,691.424805 509.244141,688.79834 512.029785,685.773926 L512.188965,685.773926 L514.41748,683.46582 C515.292969,682.431152 516.009277,681.635254 516.566406,681.078125 L516.566406,680.918945 C516.805176,680.918945 516.884766,680.839355 516.884766,680.600586 L517.521484,679.804688 C522.854004,672.721191 526.196777,664.921387 527.629395,656.405273 C529.062012,647.88916 528.982422,639.213867 527.311035,630.379395 L527.151855,630.379395 C526.753906,626.877441 525.719238,623.216309 524.047852,619.316406 C522.058105,614.859375 519.431641,610.879883 516.168457,607.45752 C512.905273,603.716797 509.32373,600.692383 505.423828,598.384277 C501.603516,595.996582 497.305664,594.006836 492.530273,592.494629 C488.073242,591.062012 483.377441,589.947754 478.522461,589.072266 C468.73291,587.639648 458.54541,587.321289 447.959961,588.117188 C437.533691,588.992676 427.744141,591.459961 418.591309,595.519043 C413.895508,597.827148 409.756836,600.453613 406.175293,603.398438 C402.35498,606.502441 399.489746,610.322754 397.57959,614.859375 C395.749023,618.679688 394.953125,622.65918 395.191895,626.877441 C395.430664,631.254883 396.385742,635.313965 398.136719,639.054688 L398.136719,639.213867 C400.285645,643.909668 403.310059,647.570801 407.130371,650.276855 C411.030273,653.22168 415.328125,655.370605 420.023926,656.803223 C424.480957,658.31543 429.495117,659.350098 434.986816,659.907227 C440.160156,660.543945 445.094727,660.862305 449.790527,660.862305 C459.102539,661.180664 469.130859,660.384766 479.875488,658.474609 C489.824219,656.484863 499.13623,652.744141 507.731934,647.172852 L509.5625,645.899414 L509.40332,648.12793 C509.084961,653.778809 507.652344,659.111328 505.185059,664.125488 C502.797363,668.821289 499.21582,672.959961 494.36084,676.541504 L494.20166,676.541504 C488.312012,680.680176 481.387695,683.46582 473.508301,684.978027 C466.026855,686.331055 458.625,686.808594 451.223145,686.490234 C443.980469,686.171875 436.339844,684.818848 428.380859,682.431152 C421.297363,680.123047 414.850586,676.461914 408.960937,671.447754 L398.534668,682.033203 Z M459.341309,642.397461 L459.261719,642.63623 C457.829102,642.63623 456.714844,642.556641 455.998535,642.477051 C453.29248,642.477051 449.074219,642.238281 443.42334,641.840332 C439.045898,641.521973 434.907227,640.885254 430.927734,639.850586 L425.674805,638.577148 C423.923828,638.02002 422.172852,637.224121 420.501465,636.109863 C419.068848,635.234375 417.71582,633.960938 416.362793,632.289551 C415.168945,630.538574 414.611816,628.548828 414.691406,626.399902 C414.691406,625.365234 415.089355,623.932617 415.805664,622.181641 C416.840332,620.669434 417.79541,619.555176 418.591309,618.918457 C419.785156,617.724609 420.899414,616.849121 421.934082,616.291992 L425.197266,614.302246 C428.699219,612.55127 432.121582,611.277832 435.464355,610.561523 C438.40918,609.686035 441.911133,608.969727 445.970215,608.412598 L446.129395,608.253418 C452.974121,607.537109 460.375977,607.29834 468.334961,607.537109 C476.134766,607.855469 483.377441,609.526855 489.983398,612.47168 C493.724121,613.983887 496.987305,615.814453 499.772949,617.963379 C502.797363,620.430664 505.105469,623.455078 506.617676,627.036621 L506.617676,627.51416 L507.572754,628.389648 L506.617676,629.185547 C504.946289,630.538574 502.876953,631.891602 500.409668,633.244629 C493.803711,636.826172 486.640625,639.293457 478.92041,640.566895 C472.075684,641.760742 465.549316,642.397461 459.341309,642.397461 Z M426.311523,616.530762 L422.88916,618.440918 C422.172852,618.838867 421.138184,619.555176 419.785156,620.589844 C418.909668,621.465332 418.193359,622.42041 417.556641,623.455078 C416.999512,624.489746 416.760742,625.524414 416.760742,626.559082 C416.760742,628.389648 417.238281,629.822266 418.193359,630.856934 C419.068848,632.289551 420.183105,633.403809 421.615723,634.120117 C423.12793,635.075195 424.640137,635.791504 426.152344,636.269043 C427.98291,636.905762 429.654297,637.383301 431.166504,637.70166 C435.543945,638.736328 439.603027,639.373047 443.34375,639.532227 C448.994629,639.930176 453.212891,640.168945 455.998535,640.168945 C462.604492,640.487305 470.006348,640.009766 478.204102,638.736328 C485.605957,637.383301 492.530273,634.916016 499.056641,631.334473 C500.568848,630.618164 502.319824,629.503906 504.22998,628.071289 C504.22998,627.991699 504.150391,627.912109 504.070801,627.912109 C502.876953,624.887695 500.887207,622.26123 498.101562,619.953125 C495.315918,617.804199 492.291504,616.053223 489.02832,614.779785 C482.422363,611.994141 475.498047,610.402344 468.255371,610.004395 C460.455566,609.686035 453.133301,609.924805 446.208984,610.641113 C441.672363,611.516602 438.25,612.23291 435.941895,612.790039 C432.519531,613.506348 429.335937,614.779785 426.311523,616.530762 Z" id="2019"></path>
        </g>
    </g>
</svg>