<?xml version="1.0" encoding="UTF-8"?>
<svg width="250px" height="250px" viewBox="0 0 250 250" version="1.1" xmlns="http://www.w3.org/2000/svg" xmlns:xlink="http://www.w3.org/1999/xlink">
    <!-- Generator: Sketch 55 (78076) - https://sketchapp.com -->
    <title>logo_b&amp;w</title>
    <desc>Created with Sketch.</desc>
    <defs>
        <path d="M1.42108547e-14,120.5 C1.42108547e-14,187.0502 54.1735301,241 120.999714,241 L120.999714,241 C187.825899,241 242,187.0502 242,120.5 L242,120.5 C242,53.9497999 187.825899,-3.05533376e-13 120.999714,-3.05533376e-13 L120.999714,-3.05533376e-13 C54.1735301,-3.05533376e-13 1.42108547e-14,53.9497999 1.42108547e-14,120.5 L1.42108547e-14,120.5 Z" id="path-1"></path>
        <polygon id="path-3" points="0 245.798914 246.54468 245.798914 246.54468 0.453105828 0 0.453105828"></polygon>
    </defs>
    <g id="Page-1" stroke="none" stroke-width="1" fill="none" fill-rule="evenodd">
        <g id="Desktop-HD" transform="translate(-243.000000, -151.000000)">
            <g id="logo_b&amp;w" transform="translate(368.000000, 276.000000) rotate(-360.000000) translate(-368.000000, -276.000000) translate(243.000000, 151.000000)">
                <g id="Group-7" fill="#FFFFFF" fill-rule="nonzero">
                    <path d="M250,125 C250,194.033504 194.03739,250 125.000278,250 C55.9626973,250 0,194.033592 0,125 C0,55.9660426 55.9625068,-1.13686838e-13 125.000278,-1.13686838e-13 C194.037581,-1.13686838e-13 250,55.9661302 250,125 Z M245.404412,125 C245.404412,58.4819337 191.495735,4.5620438 125.000278,4.5620438 C58.5043493,4.5620438 4.59558824,58.4818493 4.59558824,125 C4.59558824,191.517788 58.5045429,245.437956 125.000278,245.437956 C191.495541,245.437956 245.404412,191.517704 245.404412,125 Z" id="Stroke-3"></path>
                </g>
                <g id="Group-10" transform="translate(4.000000, 6.000000)">
                    <mask id="mask-2" fill="white">
                        <use xlink:href="#path-1"></use>
                    </mask>
                    <g id="Clip-9"></g>
                    <path d="M82.2155787,82.3828548 L82.2155787,108.725937 C82.2155787,109.465346 82.8945768,110.065234 83.6408477,110.065234 C84.3871185,110.065234 85.0661166,109.465346 85.0661166,108.725937 L85.0661166,85.3427517 C86.2063318,86.3826696 87.0557921,87.3858713 88.1766237,88.3421891 C89.0534491,89.0900715 90.197085,89.7961538 90.7671926,90.481336 L90.7671926,108.725937 C90.7671926,109.465346 91.4461907,110.065234 92.1924615,110.065234 C92.9387324,110.065234 93.6177305,109.465346 93.6177305,108.725937 L93.6177305,92.3758959 C95.3280533,93.6169061 97.6084837,94.7285621 99.3188064,95.7102988 L99.3188064,108.725937 C99.3188064,109.465346 99.9978046,110.065234 100.744075,110.065234 C101.490346,110.065234 102.169344,109.465346 102.169344,108.725937 L102.169344,96.9196765 C104.449775,97.7189617 106.160098,98.4018844 108.440528,98.96788 L108.440528,108.725937 C108.440528,109.465346 108.834472,110.065234 109.580743,110.065234 C110.327014,110.065234 110.720958,109.465346 110.720958,108.725937 L110.720958,99.6558866 C113.001389,100.094222 114.711711,100.412807 116.992142,100.62915 L116.992142,108.725937 C116.992142,109.465346 117.386086,110.065234 118.132357,110.065234 C118.878628,110.065234 119.272572,109.465346 119.272572,108.725937 L119.272572,100.855097 C120.412787,100.908194 121.375699,100.896332 122.320367,100.896332 L122.481138,100.896332 C123.464573,100.896332 124.40354,100.910454 125.543756,100.856226 L125.543756,108.725937 C125.543756,109.465346 126.222184,110.065234 126.969025,110.065234 C127.715866,110.065234 128.394294,109.465346 128.394294,108.725937 L128.394294,100.633669 C130.104616,100.419585 131.814939,100.10326 134.095369,99.666619 L134.095369,108.725937 C134.095369,109.465346 134.773798,110.065234 135.520638,110.065234 C136.267479,110.065234 136.945907,109.465346 136.945907,108.725937 L136.945907,98.9786124 C138.65623,98.4148764 140.936661,97.7398617 142.646983,96.942836 L142.646983,108.725937 C142.646983,109.465346 143.325411,110.065234 144.072252,110.065234 C144.819093,110.065234 145.497521,109.465346 145.497521,108.725937 L145.497521,95.7300691 C147.207844,94.7511567 149.488274,93.6411954 151.198597,92.4024446 L151.198597,108.725937 C151.198597,109.465346 151.877025,110.065234 152.623866,110.065234 C153.370707,110.065234 154.049135,109.465346 154.049135,108.725937 L154.049135,90.5180523 C154.619243,89.8854026 155.627193,89.2363717 156.440737,88.5500598 C157.632261,87.5468581 158.609996,86.4945131 159.750211,85.3969788 L159.750211,108.725937 C159.750211,109.465346 160.428639,110.065234 161.17548,110.065234 C161.922321,110.065234 162.600749,109.465346 162.600749,108.725937 L162.600749,82.4416008 C165.451287,79.1834548 167.731717,75.6067245 169.44204,71.7944451 L169.44204,111.063917 L75.3742876,111.063917 L75.3742876,71.6972882 C77.0846104,75.5231243 79.3650407,79.1117169 82.2155787,82.3828548 L82.2155787,82.3828548 Z M75.3742876,122.361233 L169.44204,122.361233 L169.44204,117.277441 L75.3742876,117.277441 L75.3742876,122.361233 Z M245.121542,122.361233 L188.255591,122.361233 L188.255591,117.277441 L245.121542,117.277441 C246.987505,117.277441 248.5,116.019484 248.5,114.170679 C248.5,112.321873 246.987505,111.063917 245.121542,111.063917 L188.255591,111.063917 L188.255591,71.6955936 C189.965913,75.1124669 192.246344,78.3412399 194.526774,81.3231665 L194.526774,108.725937 C194.526774,109.465346 195.205202,110.065234 195.952043,110.065234 C196.698884,110.065234 197.377312,109.465346 197.377312,108.725937 L197.377312,84.4208907 C198.517527,85.7923849 199.919992,87.1073925 201.366925,88.3410594 C201.964398,88.8511332 202.50828,89.3459557 203.078388,89.8272214 L203.078388,108.725937 C203.078388,109.465346 203.756816,110.065234 204.503657,110.065234 C205.250498,110.065234 205.928926,109.465346 205.928926,108.725937 L205.928926,91.7799625 C207.639249,93.0740701 209.919679,94.2393883 211.630002,95.2697035 L211.630002,108.725937 C211.630002,109.465346 212.30843,110.065234 213.055271,110.065234 C213.802112,110.065234 214.48054,109.465346 214.48054,108.725937 L214.48054,96.5395219 C216.190863,97.3789125 218.471293,98.100811 220.181616,98.7052174 L220.181616,108.725937 C220.181616,109.465346 220.860044,110.065234 221.606885,110.065234 C222.353726,110.065234 223.032154,109.465346 223.032154,108.725937 L223.032154,99.4384132 C225.312584,99.9112059 227.022907,100.276109 229.303337,100.52578 L229.303337,108.725937 C229.303337,109.465346 229.696711,110.065234 230.443552,110.065234 C231.190393,110.065234 231.583768,109.465346 231.583768,108.725937 L231.583768,100.790137 C232.723983,100.880516 234.197141,100.896332 235.435985,100.896332 L235.585923,100.896332 C236.278604,100.896332 236.714736,100.922316 237.854951,100.895767 L237.854951,108.725937 C237.854951,109.465346 238.248325,110.065234 238.995166,110.065234 C239.742007,110.065234 240.135381,109.465346 240.135381,108.725937 L240.135381,100.728567 C241.845704,100.578312 243.615318,100.351236 245.259508,100.04169 C245.993237,99.9038627 246.531989,99.203429 246.392882,98.4764467 C246.253206,97.7500293 245.575348,97.2738474 244.841049,97.4111098 C241.781282,97.9867081 238.613194,98.2923005 235.429143,98.2651869 C223.560643,98.2307301 212.011404,93.9857635 203.015676,86.3120614 C196.207451,80.504676 191.106129,73.0049525 188.255591,64.663579 L188.255591,47.690491 C188.255591,47.6791937 188.323433,47.6690261 188.323433,47.6577288 C188.324574,45.1768382 187.384466,42.7592125 185.614282,41.0036095 C183.844668,39.2491363 181.52319,38.1962264 179.019848,38.1962264 L179.016997,38.1962264 C176.514225,38.1962264 174.059342,39.2474417 172.289157,41.0002203 C170.518403,42.7546935 169.44204,45.1717544 169.44204,47.652645 L169.44204,64.8093144 C166.591502,73.1907934 161.541489,80.7125466 154.65972,86.5103293 C146.754609,93.1706621 137.009189,97.1975905 126.740411,98.0821704 C126.73357,98.0821704 126.753524,98.0804758 126.747253,98.0804758 C126.717037,98.0804758 126.700504,97.9884027 126.670858,97.9906621 C125.277515,98.1075894 123.888733,98.0720028 122.481708,98.0720028 L122.328919,98.0720028 C110.458139,98.0720028 99.0189298,93.8880417 90.0220619,86.2137748 C83.2166876,80.4086488 78.2248256,73.0089066 75.3742876,64.6692277 L75.3742876,47.7006586 C75.3742876,47.6859721 75.323548,47.6718505 75.323548,47.657164 C75.3246882,45.1762733 74.3247195,42.7592125 72.5545355,41.0036095 C70.7849215,39.2491363 68.4047223,38.1962264 65.9008098,38.1962264 L65.8979592,38.1962264 C63.3951869,38.1962264 61.0417828,39.2474417 59.2715987,41.0002203 C57.5008445,42.7546935 56.5253904,45.1293894 56.5253904,47.6102801 C56.5253904,47.7057424 56.5493349,47.8204102 56.5578866,47.9141779 C56.5493349,48.0073808 56.5607371,48.1220485 56.5607371,48.2175108 L56.5607371,64.811009 C53.7101991,73.192488 48.5427439,80.714806 41.6615453,86.5120239 C32.6184987,94.130934 21.0835118,98.3205438 9.21957284,98.2651869 C6.12616905,98.2567139 3.04017666,97.9629837 0.0550933129,97.3930341 C-0.678635157,97.2518176 -1.38841911,97.7285644 -1.52980579,98.4549818 C-1.67062237,99.1808344 -1.12845005,99.8829626 -0.395291684,100.023049 C1.25174915,100.337115 2.97062353,100.567015 4.68094631,100.721223 L4.68094631,108.725937 C4.68094631,109.465346 5.35994445,110.065234 6.10621528,110.065234 C6.85248612,110.065234 7.53148426,109.465346 7.53148426,108.725937 L7.53148426,100.892943 C8.10159185,100.918362 8.55311707,100.896332 9.20246961,100.896332 L9.37749264,100.896332 C10.6505429,100.896332 12.092345,100.886164 13.2325602,100.795221 L13.2325602,108.725937 C13.2325602,109.465346 13.9115583,110.065234 14.6578292,110.065234 C15.4041,110.065234 16.0830981,109.465346 16.0830981,108.725937 L16.0830981,100.534253 C17.7934209,100.286277 20.0738513,99.9213735 21.784174,99.4502754 L21.784174,108.725937 C21.784174,109.465346 22.4631722,110.065234 23.209443,110.065234 C23.9557139,110.065234 24.634712,109.465346 24.634712,108.725937 L24.634712,98.7215985 C26.3450348,98.1194515 28.6254651,97.3986828 30.3357879,96.5615516 L30.3357879,108.725937 C30.3357879,109.465346 31.014786,110.065234 31.7610569,110.065234 C32.5073277,110.065234 33.1863259,109.465346 33.1863259,108.725937 L33.1863259,95.2979468 C35.4667562,94.269891 37.177079,93.107962 38.8874018,91.8172436 L38.8874018,108.725937 C38.8874018,109.465346 39.5663999,110.065234 40.3126707,110.065234 C41.0589416,110.065234 41.7379397,109.465346 41.7379397,108.725937 L41.7379397,89.8616782 C42.3080473,89.4352045 42.7190949,89.0013876 43.2521455,88.5523192 C44.7709121,87.2723333 46.2988005,85.9047932 47.4390156,84.4745529 L47.4390156,108.725937 C47.4390156,109.465346 48.1180138,110.065234 48.8642846,110.065234 C49.6105555,110.065234 50.2895536,109.465346 50.2895536,108.725937 L50.2895536,81.3813477 C52.569984,78.4129779 54.8504143,75.1994562 56.5607371,71.7972694 L56.5607371,111.063917 L-0.204875749,111.063917 C-2.07083789,111.063917 -3.58333333,112.321873 -3.58333333,114.170679 C-3.58333333,116.019484 -2.07083789,117.277441 -0.204875749,117.277441 L56.5607371,117.277441 L56.5607371,122.361233 L-0.204875749,122.361233 C-2.07083789,122.361233 -3.58333333,123.902187 -3.58333333,125.750428 C-3.58333333,127.599234 -2.07083789,129.139623 -0.204875749,129.139623 L59.9027078,129.139623 C61.7686699,129.139623 63.2811654,127.541052 63.2811654,125.692247 C63.2811654,125.665133 63.337606,125.588311 63.3364658,125.560633 C63.3381761,125.522787 63.4020282,125.435797 63.4020282,125.396822 L63.4020282,48.2175108 C63.4020282,48.1220485 63.3358957,48.0282808 63.3279142,47.9350779 C63.3358957,47.8418751 63.3125213,47.7481073 63.3125213,47.652645 C63.3125213,46.9606844 63.5696398,46.2664643 64.0639231,45.7767257 C64.5576363,45.2875519 65.1995774,44.9746162 65.8979592,44.9746162 L65.8990994,44.9746162 C66.5974812,44.9746162 67.2542452,45.2875519 67.7485285,45.7772905 C68.238821,46.26364 68.5193139,46.9307465 68.5227346,47.6170585 C68.5227346,47.6215774 68.5329965,47.6481261 68.5329965,47.652645 L68.5329965,114.166724 C68.5329965,114.175762 68.5318563,114.1848 68.5318563,114.193838 C68.5318563,114.203441 68.5329965,114.212479 68.5329965,114.221516 L68.5329965,125.317176 C68.5329965,125.358976 68.5272954,125.399646 68.5284356,125.441446 C68.5261552,125.491154 68.5153232,125.641409 68.5153232,125.692247 C68.5153232,127.541052 70.0226876,129.139623 71.8886498,129.139623 L173.018895,129.139623 C174.884857,129.139623 176.397353,127.541052 176.397353,125.692247 C176.397353,125.560633 176.32894,125.382135 176.314117,125.254476 C176.33065,125.118908 176.283331,124.931937 176.283331,124.79185 L176.283331,47.652645 C176.283331,46.9606844 176.614564,46.3093941 177.108847,45.8196555 C177.60256,45.3304817 178.28954,45.0610407 178.987352,45.0610407 L179.002744,45.0610407 C179.701696,45.0610407 180.257551,45.3310465 180.751264,45.8207852 C181.242697,46.3076995 181.4143,46.9544709 181.4143,47.6419126 L181.4143,47.652645 L181.4143,114.106849 C181.4143,114.135657 181.409739,114.164465 181.409739,114.193838 C181.409739,114.223776 181.4143,114.252019 181.4143,114.281392 L181.4143,124.79185 C181.4143,124.922899 181.531742,125.051124 181.546565,125.177654 C181.529461,125.313786 181.572219,125.551595 181.572219,125.692247 C181.572219,127.541052 183.138875,129.139623 185.004837,129.139623 L245.121542,129.139623 C246.987505,129.139623 248.5,127.599234 248.5,125.750428 C248.5,123.902187 246.987505,122.361233 245.121542,122.361233 L245.121542,122.361233 Z" id="Fill-8" fill="#FFFFFF" mask="url(#mask-2)"></path>
                </g>
                <g id="Group-41" transform="translate(2.000000, 1.000000)">
                    <polygon id="Fill-11" fill="#FFFFFF" points="84.0582443 150.157897 93.0342353 150.157897 93.0342353 152.869933 87.1675709 152.869933 87.1675709 154.767589 92.473374 154.767589 92.473374 157.335555 87.1675709 157.335555 87.1675709 161.323326 84.0582443 161.323326"></polygon>
                    <path d="M99.6033855,155.517138 C100.661562,155.517138 101.270497,155.006844 101.270497,154.193013 L101.270497,154.161669 C101.270497,153.284052 100.62896,152.837545 99.5873609,152.837545 L97.551683,152.837545 L97.551683,155.517138 L99.6033855,155.517138 Z M94.4423564,150.157952 L99.7476069,150.157952 C101.462793,150.157952 102.648614,150.604459 103.402323,151.3699 C104.059332,152.008317 104.395849,152.869988 104.395849,153.970309 L104.395849,154.001653 C104.395849,155.708498 103.482446,156.841263 102.087752,157.43074 L104.764415,161.323381 L101.17435,161.323381 L98.9143273,157.941584 L97.551683,157.941584 L97.551683,161.323381 L94.4423564,161.323381 L94.4423564,150.157952 Z" id="Fill-13" fill="#FFFFFF"></path>
                    <path d="M114.490744,155.77278 L114.490744,155.740336 C114.490744,154.129721 113.320948,152.725863 111.605762,152.725863 C109.906601,152.725863 108.768854,154.097278 108.768854,155.708443 L108.768854,155.740336 C108.768854,157.351501 109.93865,158.75536 111.637811,158.75536 C113.352444,158.75536 114.490744,157.383395 114.490744,155.77278 M105.578851,155.77278 L105.578851,155.740336 C105.578851,152.534503 108.175391,149.934643 111.637811,149.934643 C115.100232,149.934643 117.664722,152.502609 117.664722,155.708443 L117.664722,155.740336 C117.664722,158.94617 115.06763,161.54658 111.605762,161.54658 C108.143341,161.54658 105.578851,158.978613 105.578851,155.77278" id="Fill-15" fill="#FFFFFF"></path>
                    <polygon id="Fill-17" fill="#FFFFFF" points="119.279892 150.157897 122.180898 150.157897 126.797643 156.05927 126.797643 150.157897 129.874921 150.157897 129.874921 161.323326 127.150185 161.323326 122.357169 155.198149 122.357169 161.323326 119.279892 161.323326"></polygon>
                    <polygon id="Fill-19" fill="#FFFFFF" points="134.600025 152.869768 131.233752 152.869768 131.233752 150.157732 141.075625 150.157732 141.075625 152.869768 137.709352 152.869768 137.709352 161.323161 134.600025 161.323161"></polygon>
                    <polygon id="Fill-21" fill="#FFFFFF" points="148.781306 150.157897 151.890633 150.157897 148.877454 161.323326 145.768128 161.323326"></polygon>
                    <polygon id="Fill-23" fill="#FFFFFF" points="153.909292 150.157897 156.810298 150.157897 159.711305 156.362257 161.394442 150.157897 164.488296 150.157897 161.474565 161.323326 158.749829 161.323326 155.720072 154.895162 153.989415 161.323326 150.896113 161.323326"></polygon>
                    <polygon id="Fill-25" fill="#FFFFFF" points="45.5761969 172.373499 64.6825034 172.373499 64.6825034 178.862701 53.2055682 178.862701 53.2055682 181.7507 63.8674586 181.7507 63.8674586 187.655373 53.2055682 187.655373 53.2055682 195.085979 45.5761969 195.085979"></polygon>
                    <polygon id="Fill-27" fill="#FFFFFF" points="68.918581 172.373499 76.5479523 172.373499 76.5479523 188.596778 87.2750463 188.596778 87.2750463 195.085979 68.918581 195.085979"></polygon>
                    <path d="M106.771469,183.794351 L106.771469,183.729464 C106.771469,181.036124 104.913167,178.60288 101.978453,178.60288 C99.0768942,178.60288 97.2506414,181.004231 97.2506414,183.664578 L97.2506414,183.729464 C97.2506414,186.422255 99.1089434,188.856049 102.043657,188.856049 C104.945216,188.856049 106.771469,186.455248 106.771469,183.794351 M89.5560664,183.794351 L89.5560664,183.729464 C89.5560664,177.142933 95.0011179,171.887125 102.043657,171.887125 C109.086196,171.887125 114.466044,177.078047 114.466044,183.664578 L114.466044,183.729464 C114.466044,190.315995 109.020993,195.572353 101.978453,195.572353 C94.9359143,195.572353 89.5560664,190.381432 89.5560664,183.794351" id="Fill-29" fill="#FFFFFF"></path>
                    <path d="M129.917745,183.177874 C131.743998,183.177874 132.852459,182.366792 132.852459,180.971182 L132.852459,180.906846 C132.852459,179.446899 131.710844,178.732598 129.950347,178.732598 L126.624412,178.732598 L126.624412,183.177874 L129.917745,183.177874 Z M118.99504,172.373719 L130.145958,172.373719 C134.18858,172.373719 136.765226,173.37946 138.362161,174.96918 C139.731989,176.331797 140.449228,178.018846 140.449228,180.354761 L140.449228,180.419647 C140.449228,183.729409 138.721334,186.03288 135.949629,187.363604 L141.264273,195.085649 L132.55849,195.085649 L128.254501,188.596448 L126.624412,188.596448 L126.624412,195.085649 L118.99504,195.085649 L118.99504,172.373719 Z" id="Fill-31" fill="#FFFFFF"></path>
                    <mask id="mask-4" fill="white">
                        <use xlink:href="#path-3"></use>
                    </mask>
                    <g id="Clip-34"></g>
                    <polygon id="Fill-33" fill="#FFFFFF" mask="url(#mask-4)" points="144.815492 195.086254 152.444864 195.086254 152.444864 172.373774 144.815492 172.373774"></polygon>
                    <path d="M167.246076,183.502251 C169.202183,183.502251 170.506255,182.626283 170.506255,181.004121 L170.506255,180.939234 C170.506255,179.284628 169.300541,178.440553 167.27923,178.440553 L165.192163,178.440553 L165.192163,183.502251 L167.246076,183.502251 Z M157.562792,172.373664 L167.832908,172.373664 C173.897394,172.373664 178.038374,175.065905 178.038374,180.452585 L178.038374,180.517472 C178.038374,186.000932 173.83219,188.920825 167.670452,188.920825 L165.192163,188.920825 L165.192163,195.085594 L157.562792,195.085594 L157.562792,172.373664 Z" id="Fill-35" fill="#FFFFFF" mask="url(#mask-4)"></path>
                    <path d="M193.588764,186.649577 L191.50225,181.134224 L189.415183,186.649577 L193.588764,186.649577 Z M187.785093,172.211228 L195.349813,172.211228 L204.967894,195.085924 L196.685934,195.085924 L195.479668,192.035708 L187.491677,192.035708 L186.318013,195.085924 L178.16646,195.085924 L187.785093,172.211228 Z" id="Fill-36" fill="#FFFFFF" mask="url(#mask-4)"></path>
                    <path d="M182.793649,158.711754 C179.47766,158.711754 176.558418,156.622188 175.50632,153.48344 C175.277555,152.800482 175.648883,152.061986 176.335179,151.834333 C177.022579,151.605581 177.763027,151.976204 177.992344,152.658612 C178.684718,154.727832 179.135617,156.105296 182.794754,156.105296 C182.818514,156.105296 182.842275,156.105296 182.866036,156.104746 C185.0813,156.074502 187.000385,154.637101 187.643027,152.527189 C187.853004,151.838182 188.583505,151.448863 189.276432,151.65782 C189.968805,151.866776 190.360027,152.594275 190.150049,153.283282 C189.175311,156.484167 186.262147,158.665563 182.901953,158.711204 C182.866036,158.711754 182.829566,158.711754 182.793649,158.711754" id="Fill-37" fill="#FFFFFF" mask="url(#mask-4)"></path>
                    <path d="M194.941075,158.711754 C191.625087,158.711754 188.705845,156.622188 187.653747,153.48344 C187.424981,152.800482 187.79631,152.061986 188.482606,151.834333 C189.171111,151.605581 189.910453,151.976204 190.139771,152.658612 C190.832145,154.727832 192.756755,156.105296 194.942181,156.105296 C194.965941,156.105296 194.989702,156.105296 195.014015,156.104746 C197.228726,156.074502 199.147811,154.637101 199.790453,152.527189 C200.000431,151.838182 200.730932,151.448863 201.423858,151.65782 C202.116232,151.866776 202.507453,152.594275 202.297476,153.283282 C201.328816,156.464371 196.930337,158.685359 195.04938,158.711204 C195.013462,158.711754 194.976993,158.711754 194.941075,158.711754" id="Fill-38" fill="#FFFFFF" mask="url(#mask-4)"></path>
                    <path d="M53.3254213,158.711754 C50.0094324,158.711754 47.0901908,156.622188 46.0380924,153.48344 C45.8098799,152.800482 46.1806562,152.061986 46.8669515,151.834333 C47.551589,151.605581 48.2947993,151.975654 48.5235644,152.658612 C49.2164906,154.727832 51.1411013,156.105296 53.3265264,156.105296 C53.350287,156.105296 53.3740477,156.105296 53.3978083,156.104746 C55.6130723,156.074502 57.5327098,154.637101 58.1753519,152.527189 C58.384777,151.838182 59.1174884,151.449963 59.8087568,151.65782 C60.5011304,151.866776 60.8923519,152.594275 60.6823743,153.283282 C59.707636,156.484167 56.7944727,158.665563 53.4337255,158.711204 C53.3978083,158.711754 53.3613385,158.711754 53.3254213,158.711754" id="Fill-39" fill="#FFFFFF" mask="url(#mask-4)"></path>
                    <path d="M65.4731244,158.711754 C62.1571356,158.711754 59.2373414,156.622188 58.1857955,153.482891 C57.957583,152.800482 58.3283593,152.061986 59.0146546,151.834333 C59.6998447,151.606131 60.4425025,151.975654 60.6718201,152.659162 C61.3719298,154.750377 63.31146,156.138289 65.5455114,156.104746 C67.7607754,156.074502 69.680413,154.637101 70.3225025,152.527189 C70.5319275,151.838182 71.2646389,151.449963 71.9559074,151.65782 C72.648281,151.866776 73.0395025,152.594275 72.8295248,153.283282 C71.8547866,156.484167 68.9421758,158.665563 65.5814286,158.711204 C65.5455114,158.711754 65.5090416,158.711754 65.4731244,158.711754" id="Fill-40" fill="#FFFFFF" mask="url(#mask-4)"></path>
                </g>
            </g>
        </g>
    </g>
</svg>